<svg xmlns="http://www.w3.org/2000/svg" width="900" height="500">
<rect width="100%" height="100%" fill="#ffffff"/>
<text x="450.0" y="30" font-size="18" text-anchor="middle">First-Digit Distribution (Observed vs Expected)</text>
<line x1="60" y1="440" x2="840" y2="440" stroke="#333"/>
<line x1="60" y1="60" x2="60" y2="440" stroke="#333"/>
<rect x="74.44" y="123.33" width="23.11" height="316.67" fill="#4c78a8"/>
<rect x="103.33" y="124.40" width="23.11" height="315.60" fill="#f58518"/>
<text x="103.33333333333334" y="460" font-size="12" text-anchor="middle">1</text>
<rect x="161.11" y="247.96" width="23.11" height="192.04" fill="#4c78a8"/>
<rect x="190.00" y="255.38" width="23.11" height="184.62" fill="#f58518"/>
<text x="190.00000000000003" y="460" font-size="12" text-anchor="middle">2</text>
<rect x="247.78" y="316.53" width="23.11" height="123.47" fill="#4c78a8"/>
<rect x="276.67" y="309.01" width="23.11" height="130.99" fill="#f58518"/>
<text x="276.6666666666667" y="460" font-size="12" text-anchor="middle">3</text>
<rect x="334.44" y="344.99" width="23.11" height="95.01" fill="#4c78a8"/>
<rect x="363.33" y="338.40" width="23.11" height="101.60" fill="#f58518"/>
<text x="363.3333333333333" y="460" font-size="12" text-anchor="middle">4</text>
<rect x="421.11" y="361.86" width="23.11" height="78.14" fill="#4c78a8"/>
<rect x="450.00" y="356.99" width="23.11" height="83.01" fill="#f58518"/>
<text x="450.0" y="460" font-size="12" text-anchor="middle">5</text>
<rect x="507.78" y="374.14" width="23.11" height="65.86" fill="#4c78a8"/>
<rect x="536.67" y="369.81" width="23.11" height="70.19" fill="#f58518"/>
<text x="536.6666666666667" y="460" font-size="12" text-anchor="middle">6</text>
<rect x="594.44" y="387.95" width="23.11" height="52.05" fill="#4c78a8"/>
<rect x="623.33" y="379.20" width="23.11" height="60.80" fill="#f58518"/>
<text x="623.3333333333334" y="460" font-size="12" text-anchor="middle">7</text>
<rect x="681.11" y="392.54" width="23.11" height="47.46" fill="#4c78a8"/>
<rect x="710.00" y="386.37" width="23.11" height="53.63" fill="#f58518"/>
<text x="710.0000000000001" y="460" font-size="12" text-anchor="middle">8</text>
<rect x="767.78" y="362.28" width="23.11" height="77.72" fill="#4c78a8"/>
<rect x="796.67" y="392.03" width="23.11" height="47.97" fill="#f58518"/>
<text x="796.6666666666667" y="460" font-size="12" text-anchor="middle">9</text>
<line x1="60" y1="440.00" x2="840" y2="440.00" stroke="#ddd"/>
<text x="50" y="444.00" font-size="10" text-anchor="end">0.0%</text>
<line x1="60" y1="364.00" x2="840" y2="364.00" stroke="#ddd"/>
<text x="50" y="368.00" font-size="10" text-anchor="end">7.2%</text>
<line x1="60" y1="288.00" x2="840" y2="288.00" stroke="#ddd"/>
<text x="50" y="292.00" font-size="10" text-anchor="end">14.5%</text>
<line x1="60" y1="212.00" x2="840" y2="212.00" stroke="#ddd"/>
<text x="50" y="216.00" font-size="10" text-anchor="end">21.7%</text>
<line x1="60" y1="136.00" x2="840" y2="136.00" stroke="#ddd"/>
<text x="50" y="140.00" font-size="10" text-anchor="end">29.0%</text>
<line x1="60" y1="60.00" x2="840" y2="60.00" stroke="#ddd"/>
<text x="50" y="64.00" font-size="10" text-anchor="end">36.2%</text>
<text x="60" y="40" font-size="12">Percent of totals</text>
<rect x="690" y="50" width="12" height="12" fill="#4c78a8"/>
<text x="708" y="60" font-size="12" alignment-baseline="middle">Observed</text>
<rect x="690" y="70" width="12" height="12" fill="#f58518"/>
<text x="708" y="80" font-size="12" alignment-baseline="middle">Expected</text>
</svg>