<svg xmlns="http://www.w3.org/2000/svg" width="900" height="500">
<rect width="100%" height="100%" fill="#ffffff"/>
<text x="450.0" y="30" font-size="18" text-anchor="middle">Deviation from Benford (Observed - Expected)</text>
<line x1="60" y1="440" x2="840" y2="440" stroke="#333"/>
<line x1="60" y1="60" x2="60" y2="440" stroke="#333"/>
<rect x="77.33" y="244.34" width="52.00" height="5.66" fill="#54a24b"/>
<text x="103.33" y="460" font-size="12" text-anchor="middle">1</text>
<rect x="164.00" y="210.51" width="52.00" height="39.49" fill="#54a24b"/>
<text x="190.00" y="460" font-size="12" text-anchor="middle">2</text>
<rect x="250.67" y="250.00" width="52.00" height="40.01" fill="#e45756"/>
<text x="276.67" y="460" font-size="12" text-anchor="middle">3</text>
<rect x="337.33" y="250.00" width="52.00" height="35.09" fill="#e45756"/>
<text x="363.33" y="460" font-size="12" text-anchor="middle">4</text>
<rect x="424.00" y="250.00" width="52.00" height="25.96" fill="#e45756"/>
<text x="450.00" y="460" font-size="12" text-anchor="middle">5</text>
<rect x="510.67" y="250.00" width="52.00" height="23.06" fill="#e45756"/>
<text x="536.67" y="460" font-size="12" text-anchor="middle">6</text>
<rect x="597.33" y="250.00" width="52.00" height="46.55" fill="#e45756"/>
<text x="623.33" y="460" font-size="12" text-anchor="middle">7</text>
<rect x="684.00" y="250.00" width="52.00" height="32.82" fill="#e45756"/>
<text x="710.00" y="460" font-size="12" text-anchor="middle">8</text>
<rect x="770.67" y="91.67" width="52.00" height="158.33" fill="#54a24b"/>
<text x="796.67" y="460" font-size="12" text-anchor="middle">9</text>
<line x1="60" y1="440.00" x2="840" y2="440.00" stroke="#ddd"/>
<text x="50" y="444.00" font-size="10" text-anchor="end">-3.4%</text>
<line x1="60" y1="345.00" x2="840" y2="345.00" stroke="#ddd"/>
<text x="50" y="349.00" font-size="10" text-anchor="end">-1.7%</text>
<line x1="60" y1="250.00" x2="840" y2="250.00" stroke="#ddd"/>
<text x="50" y="254.00" font-size="10" text-anchor="end">0.0%</text>
<line x1="60" y1="155.00" x2="840" y2="155.00" stroke="#ddd"/>
<text x="50" y="159.00" font-size="10" text-anchor="end">1.7%</text>
<line x1="60" y1="60.00" x2="840" y2="60.00" stroke="#ddd"/>
<text x="50" y="64.00" font-size="10" text-anchor="end">3.4%</text>
<text x="60" y="40" font-size="12">Observed - Expected</text>
</svg>